<svg width="50" height="50" viewBox="0 0 50 50" fill="none" xmlns="http://www.w3.org/2000/svg">
<path d="M0 3C0 1.34315 1.34315 0 3 0H47C48.6569 0 50 1.34315 50 3V47C50 48.6569 48.6569 50 47 50H3C1.34315 50 0 48.6569 0 47V3Z" fill="#2589BD"/>
<path d="M35.918 11.5156L36.2109 17.7266H35.4688C35.3255 16.6328 35.1302 15.8516 34.8828 15.3828C34.4792 14.6276 33.9388 14.0742 33.2617 13.7227C32.5977 13.3581 31.7188 13.1758 30.625 13.1758H26.8945V33.4102C26.8945 35.0378 27.0703 36.0534 27.4219 36.457C27.9167 37.0039 28.6784 37.2773 29.707 37.2773H30.625V38H19.3945V37.2773H20.332C21.4518 37.2773 22.2461 36.9388 22.7148 36.2617C23.0013 35.8451 23.1445 34.8945 23.1445 33.4102V13.1758H19.9609C18.724 13.1758 17.8451 13.2669 17.3242 13.4492C16.6471 13.6966 16.0677 14.1719 15.5859 14.875C15.1042 15.5781 14.8177 16.5286 14.7266 17.7266H13.9844L14.2969 11.5156H35.918Z" fill="#292F36"/>
</svg>
