<svg width="50" height="50" viewBox="0 0 50 50" fill="none" xmlns="http://www.w3.org/2000/svg">
<path d="M0 3C0 1.34315 1.34315 0 3 0H47C48.6569 0 50 1.34315 50 3V47C50 48.6569 48.6569 50 47 50H3C1.34315 50 0 48.6569 0 47V3Z" fill="#2589BD"/>
<path d="M15.5 32.5V34.5H17.5L31 21L29 19L15.5 32.5Z" fill="#B0413E"/>
<path d="M15.6667 34.3333H17.5667L30.6 21.3L28.7 19.4L15.6667 32.4333V34.3333ZM13 37V31.3333L30.6 13.7667C30.8667 13.5222 31.1611 13.3333 31.4833 13.2C31.8056 13.0667 32.1444 13 32.5 13C32.8556 13 33.2 13.0667 33.5333 13.2C33.8667 13.3333 34.1556 13.5333 34.4 13.8L36.2333 15.6667C36.5 15.9111 36.6944 16.2 36.8167 16.5333C36.9389 16.8667 37 17.2 37 17.5333C37 17.8889 36.9389 18.2278 36.8167 18.55C36.6944 18.8722 36.5 19.1667 36.2333 19.4333L18.6667 37H13ZM29.6333 20.3667L28.7 19.4L30.6 21.3L29.6333 20.3667Z" fill="#292F36"/>
</svg>
